<?xml version="1.0" encoding="UTF-8" standalone="no"?>
<!DOCTYPE svg PUBLIC "-//W3C//DTD SVG 1.1//EN"
 "http://www.w3.org/Graphics/SVG/1.1/DTD/svg11.dtd">
<!-- Generated by graphviz version 2.38.0 (20140413.2041)
 -->
<!-- Title: G Pages: 1 -->
<svg width="332pt" height="305pt"
 viewBox="0.00 0.00 331.74 305.00" xmlns="http://www.w3.org/2000/svg" xmlns:xlink="http://www.w3.org/1999/xlink">
<g id="graph0" class="graph" transform="scale(1 1) rotate(0) translate(4 301)">
<title>G</title>
<polygon fill="white" stroke="none" points="-4,4 -4,-301 327.736,-301 327.736,4 -4,4"/>
<!-- You -->
<g id="node1" class="node"><title>You</title>
<ellipse fill="none" stroke="black" cx="158.494" cy="-279" rx="27" ry="18"/>
<text text-anchor="middle" x="158.494" y="-275.3" font-family="Times,serif" font-size="14.00">You</text>
</g>
<!-- TopStack -->
<g id="node2" class="node"><title>TopStack</title>
<ellipse fill="none" stroke="black" cx="158.494" cy="-192" rx="44.393" ry="18"/>
<text text-anchor="middle" x="158.494" y="-188.3" font-family="Times,serif" font-size="14.00">TopStack</text>
</g>
<!-- You&#45;&gt;TopStack -->
<g id="edge1" class="edge"><title>You&#45;&gt;TopStack</title>
<path fill="none" stroke="black" d="M143.965,-263.625C139.008,-257.747 134.069,-250.554 131.494,-243 128.533,-234.316 131.287,-225.343 135.994,-217.437"/>
<polygon fill="black" stroke="black" points="139.019,-219.221 141.938,-209.036 133.305,-215.178 139.019,-219.221"/>
<text text-anchor="middle" x="147.994" y="-231.8" font-family="Times,serif" font-size="14.00">create</text>
</g>
<!-- TopStack&#45;&gt;You -->
<g id="edge10" class="edge"><title>TopStack&#45;&gt;You</title>
<path fill="none" stroke="black" stroke-dasharray="5,2" d="M162.007,-210.015C163.023,-215.707 163.992,-222.103 164.494,-228 165.128,-235.46 164.667,-243.525 163.772,-250.955"/>
<polygon fill="black" stroke="black" points="160.301,-250.498 162.287,-260.906 167.225,-251.532 160.301,-250.498"/>
<text text-anchor="middle" x="178.994" y="-231.8" font-family="Times,serif" font-size="14.00">done</text>
</g>
<!-- FirstBucketStack -->
<g id="node3" class="node"><title>FirstBucketStack</title>
<ellipse fill="none" stroke="black" cx="71.4937" cy="-105" rx="71.4873" ry="18"/>
<text text-anchor="middle" x="71.4937" y="-101.3" font-family="Times,serif" font-size="14.00">FirstBucketStack</text>
</g>
<!-- TopStack&#45;&gt;FirstBucketStack -->
<g id="edge2" class="edge"><title>TopStack&#45;&gt;FirstBucketStack</title>
<path fill="none" stroke="black" d="M119.762,-183.15C104.244,-178.017 87.6646,-169.627 77.4937,-156 72.694,-149.569 70.5647,-141.323 69.8079,-133.389"/>
<polygon fill="black" stroke="black" points="73.3039,-133.205 69.4944,-123.319 66.3073,-133.423 73.3039,-133.205"/>
<text text-anchor="middle" x="93.9937" y="-144.8" font-family="Times,serif" font-size="14.00">create</text>
</g>
<!-- SecondBucketStack -->
<g id="node4" class="node"><title>SecondBucketStack</title>
<ellipse fill="none" stroke="black" cx="242.494" cy="-105" rx="81.4863" ry="18"/>
<text text-anchor="middle" x="242.494" y="-101.3" font-family="Times,serif" font-size="14.00">SecondBucketStack</text>
</g>
<!-- TopStack&#45;&gt;SecondBucketStack -->
<g id="edge3" class="edge"><title>TopStack&#45;&gt;SecondBucketStack</title>
<path fill="none" stroke="black" d="M165.461,-173.863C170.272,-163.503 177.434,-150.507 186.494,-141 191.276,-135.981 196.924,-131.381 202.762,-127.281"/>
<polygon fill="black" stroke="black" points="204.923,-130.049 211.371,-121.642 201.088,-124.193 204.923,-130.049"/>
<text text-anchor="middle" x="202.994" y="-144.8" font-family="Times,serif" font-size="14.00">create</text>
</g>
<!-- FirstBucketStack&#45;&gt;TopStack -->
<g id="edge8" class="edge"><title>FirstBucketStack&#45;&gt;TopStack</title>
<path fill="none" stroke="black" stroke-dasharray="5,2" d="M90.3993,-122.457C96.8669,-128.221 104.084,-134.802 110.494,-141 119.236,-149.453 128.557,-159.025 136.636,-167.514"/>
<polygon fill="black" stroke="black" points="134.243,-170.078 143.655,-174.943 139.332,-165.271 134.243,-170.078"/>
<text text-anchor="middle" x="138.994" y="-144.8" font-family="Times,serif" font-size="14.00">done</text>
</g>
<!-- FirstS3Bucket -->
<g id="node5" class="node"><title>FirstS3Bucket</title>
<ellipse fill="none" stroke="black" cx="77.4937" cy="-18" rx="61.1893" ry="18"/>
<text text-anchor="middle" x="77.4937" y="-14.3" font-family="Times,serif" font-size="14.00">FirstS3Bucket</text>
</g>
<!-- FirstBucketStack&#45;&gt;FirstS3Bucket -->
<g id="edge4" class="edge"><title>FirstBucketStack&#45;&gt;FirstS3Bucket</title>
<path fill="none" stroke="black" d="M60.846,-86.9508C56.1399,-77.3196 52.3136,-65.0348 55.4937,-54 56.4079,-50.8276 57.7039,-47.6653 59.2149,-44.6118"/>
<polygon fill="black" stroke="black" points="62.286,-46.2921 64.2266,-35.8765 56.2143,-42.8086 62.286,-46.2921"/>
<text text-anchor="middle" x="71.9937" y="-57.8" font-family="Times,serif" font-size="14.00">create</text>
</g>
<!-- SecondBucketStack&#45;&gt;TopStack -->
<g id="edge9" class="edge"><title>SecondBucketStack&#45;&gt;TopStack</title>
<path fill="none" stroke="black" stroke-dasharray="5,2" d="M237.522,-123.276C233.852,-133.688 228.003,-146.69 219.494,-156 213.202,-162.883 205.235,-168.774 197.153,-173.653"/>
<polygon fill="black" stroke="black" points="195.426,-170.609 188.411,-178.549 198.846,-176.716 195.426,-170.609"/>
<text text-anchor="middle" x="243.994" y="-144.8" font-family="Times,serif" font-size="14.00">done</text>
</g>
<!-- SecondS3Bucket -->
<g id="node6" class="node"><title>SecondS3Bucket</title>
<ellipse fill="none" stroke="black" cx="239.494" cy="-18" rx="70.6878" ry="18"/>
<text text-anchor="middle" x="239.494" y="-14.3" font-family="Times,serif" font-size="14.00">SecondS3Bucket</text>
</g>
<!-- SecondBucketStack&#45;&gt;SecondS3Bucket -->
<g id="edge5" class="edge"><title>SecondBucketStack&#45;&gt;SecondS3Bucket</title>
<path fill="none" stroke="black" d="M213.171,-88.0599C206.477,-82.9169 200.237,-76.5525 196.494,-69 191.627,-59.1827 196.409,-49.7178 204.305,-41.7138"/>
<polygon fill="black" stroke="black" points="206.998,-44.0102 212.245,-34.8057 202.403,-38.7292 206.998,-44.0102"/>
<text text-anchor="middle" x="212.994" y="-57.8" font-family="Times,serif" font-size="14.00">create</text>
</g>
<!-- FirstS3Bucket&#45;&gt;FirstBucketStack -->
<g id="edge6" class="edge"><title>FirstS3Bucket&#45;&gt;FirstBucketStack</title>
<path fill="none" stroke="black" stroke-dasharray="5,2" d="M85.0646,-36.1425C88.3785,-45.803 91.004,-58.0859 88.4937,-69 87.8265,-71.9008 86.8853,-74.8399 85.7843,-77.7182"/>
<polygon fill="black" stroke="black" points="82.4654,-76.567 81.5907,-87.1257 88.859,-79.4171 82.4654,-76.567"/>
<text text-anchor="middle" x="102.994" y="-57.8" font-family="Times,serif" font-size="14.00">done</text>
</g>
<!-- SecondS3Bucket&#45;&gt;SecondBucketStack -->
<g id="edge7" class="edge"><title>SecondS3Bucket&#45;&gt;SecondBucketStack</title>
<path fill="none" stroke="black" stroke-dasharray="5,2" d="M240.1,-36.1754C240.51,-47.806 241.061,-63.4194 241.531,-76.7339"/>
<polygon fill="black" stroke="black" points="238.036,-76.9287 241.887,-86.799 245.032,-76.6817 238.036,-76.9287"/>
<text text-anchor="middle" x="254.994" y="-57.8" font-family="Times,serif" font-size="14.00">done</text>
</g>
</g>
</svg>
