<?xml version="1.0" encoding="UTF-8" standalone="no"?>
<!DOCTYPE svg PUBLIC "-//W3C//DTD SVG 1.1//EN"
 "http://www.w3.org/Graphics/SVG/1.1/DTD/svg11.dtd">
<!-- Generated by graphviz version 2.38.0 (20140413.2041)
 -->
<!-- Title: G Pages: 1 -->
<svg width="357pt" height="305pt"
 viewBox="0.00 0.00 356.74 305.00" xmlns="http://www.w3.org/2000/svg" xmlns:xlink="http://www.w3.org/1999/xlink">
<g id="graph0" class="graph" transform="scale(1 1) rotate(0) translate(4 301)">
<title>G</title>
<polygon fill="white" stroke="none" points="-4,4 -4,-301 352.736,-301 352.736,4 -4,4"/>
<!-- You -->
<g id="node1" class="node"><title>You</title>
<ellipse fill="none" stroke="black" cx="166.494" cy="-279" rx="27" ry="18"/>
<text text-anchor="middle" x="166.494" y="-275.3" font-family="Times,serif" font-size="14.00">You</text>
</g>
<!-- TopStack -->
<g id="node2" class="node"><title>TopStack</title>
<ellipse fill="none" stroke="black" cx="166.494" cy="-192" rx="44.393" ry="18"/>
<text text-anchor="middle" x="166.494" y="-188.3" font-family="Times,serif" font-size="14.00">TopStack</text>
</g>
<!-- You&#45;&gt;TopStack -->
<g id="edge1" class="edge"><title>You&#45;&gt;TopStack</title>
<path fill="none" stroke="black" d="M146.766,-266.676C133.128,-257.247 118.583,-242.985 125.494,-228 127.845,-222.901 131.347,-218.269 135.33,-214.166"/>
<polygon fill="black" stroke="black" points="137.791,-216.66 142.875,-207.365 133.104,-211.46 137.791,-216.66"/>
<text text-anchor="middle" x="141.994" y="-231.8" font-family="Times,serif" font-size="14.00">create</text>
</g>
<!-- TopStack&#45;&gt;You -->
<g id="edge10" class="edge"><title>TopStack&#45;&gt;You</title>
<path fill="none" stroke="black" stroke-dasharray="5,2" d="M166.494,-210.175C166.494,-221.806 166.494,-237.419 166.494,-250.734"/>
<polygon fill="black" stroke="black" points="162.994,-250.799 166.494,-260.799 169.994,-250.799 162.994,-250.799"/>
<text text-anchor="middle" x="179.994" y="-231.8" font-family="Times,serif" font-size="14.00">done</text>
</g>
<!-- FirstBucketStack -->
<g id="node3" class="node"><title>FirstBucketStack</title>
<ellipse fill="none" stroke="black" cx="71.4937" cy="-105" rx="71.4873" ry="18"/>
<text text-anchor="middle" x="71.4937" y="-101.3" font-family="Times,serif" font-size="14.00">FirstBucketStack</text>
</g>
<!-- TopStack&#45;&gt;FirstBucketStack -->
<g id="edge2" class="edge"><title>TopStack&#45;&gt;FirstBucketStack</title>
<path fill="none" stroke="black" d="M122.643,-189.338C98.3776,-185.895 70.06,-177.173 54.4937,-156 49.2851,-148.915 50.3651,-140.122 53.7529,-131.893"/>
<polygon fill="black" stroke="black" points="56.8836,-133.459 58.3462,-122.965 50.659,-130.256 56.8836,-133.459"/>
<text text-anchor="middle" x="70.9937" y="-144.8" font-family="Times,serif" font-size="14.00">create</text>
</g>
<!-- SecondBucketStack -->
<g id="node4" class="node"><title>SecondBucketStack</title>
<ellipse fill="none" stroke="black" cx="267.494" cy="-105" rx="81.4863" ry="18"/>
<text text-anchor="middle" x="267.494" y="-101.3" font-family="Times,serif" font-size="14.00">SecondBucketStack</text>
</g>
<!-- TopStack&#45;&gt;SecondBucketStack -->
<g id="edge3" class="edge"><title>TopStack&#45;&gt;SecondBucketStack</title>
<path fill="none" stroke="black" d="M173.641,-174.017C178.763,-163.457 186.515,-150.189 196.494,-141 202.958,-135.048 210.621,-129.886 218.483,-125.49"/>
<polygon fill="black" stroke="black" points="220.136,-128.576 227.389,-120.852 216.903,-122.367 220.136,-128.576"/>
<text text-anchor="middle" x="212.994" y="-144.8" font-family="Times,serif" font-size="14.00">create</text>
</g>
<!-- FirstBucketStack&#45;&gt;TopStack -->
<g id="edge8" class="edge"><title>FirstBucketStack&#45;&gt;TopStack</title>
<path fill="none" stroke="black" stroke-dasharray="5,2" d="M90.1068,-122.654C104.801,-135.802 125.442,-154.27 141.564,-168.694"/>
<polygon fill="black" stroke="black" points="139.283,-171.35 149.069,-175.41 143.951,-166.133 139.283,-171.35"/>
<text text-anchor="middle" x="138.994" y="-144.8" font-family="Times,serif" font-size="14.00">done</text>
</g>
<!-- FirstS3Bucket -->
<g id="node5" class="node"><title>FirstS3Bucket</title>
<ellipse fill="none" stroke="black" cx="91.4937" cy="-18" rx="61.1893" ry="18"/>
<text text-anchor="middle" x="91.4937" y="-14.3" font-family="Times,serif" font-size="14.00">FirstS3Bucket</text>
</g>
<!-- FirstBucketStack&#45;&gt;FirstS3Bucket -->
<g id="edge4" class="edge"><title>FirstBucketStack&#45;&gt;FirstS3Bucket</title>
<path fill="none" stroke="black" d="M61.24,-87.0189C56.6554,-77.1919 53.1554,-64.6919 57.4937,-54 59.1061,-50.026 61.4104,-46.255 64.07,-42.7622"/>
<polygon fill="black" stroke="black" points="66.7865,-44.9731 70.7617,-35.1523 61.5298,-40.3506 66.7865,-44.9731"/>
<text text-anchor="middle" x="73.9937" y="-57.8" font-family="Times,serif" font-size="14.00">create</text>
</g>
<!-- SecondBucketStack&#45;&gt;TopStack -->
<g id="edge9" class="edge"><title>SecondBucketStack&#45;&gt;TopStack</title>
<path fill="none" stroke="black" stroke-dasharray="5,2" d="M258.959,-123.374C253.166,-133.824 244.711,-146.83 234.494,-156 226.406,-163.258 216.539,-169.452 206.858,-174.522"/>
<polygon fill="black" stroke="black" points="205.12,-171.476 197.697,-179.035 208.214,-177.755 205.12,-171.476"/>
<text text-anchor="middle" x="261.994" y="-144.8" font-family="Times,serif" font-size="14.00">done</text>
</g>
<!-- SecondS3Bucket -->
<g id="node6" class="node"><title>SecondS3Bucket</title>
<ellipse fill="none" stroke="black" cx="274.494" cy="-18" rx="70.6878" ry="18"/>
<text text-anchor="middle" x="274.494" y="-14.3" font-family="Times,serif" font-size="14.00">SecondS3Bucket</text>
</g>
<!-- SecondBucketStack&#45;&gt;SecondS3Bucket -->
<g id="edge5" class="edge"><title>SecondBucketStack&#45;&gt;SecondS3Bucket</title>
<path fill="none" stroke="black" d="M231.903,-88.6354C216.875,-79.7855 204.491,-67.7075 212.494,-54 216.011,-47.9756 220.991,-42.9063 226.617,-38.6639"/>
<polygon fill="black" stroke="black" points="228.78,-41.4314 235.228,-33.025 224.945,-35.5753 228.78,-41.4314"/>
<text text-anchor="middle" x="228.994" y="-57.8" font-family="Times,serif" font-size="14.00">create</text>
</g>
<!-- FirstS3Bucket&#45;&gt;FirstBucketStack -->
<g id="edge6" class="edge"><title>FirstS3Bucket&#45;&gt;FirstBucketStack</title>
<path fill="none" stroke="black" stroke-dasharray="5,2" d="M95.9685,-36.0148C97.7934,-45.853 98.7934,-58.353 95.4937,-69 94.459,-72.3384 92.9837,-75.6414 91.2666,-78.8074"/>
<polygon fill="black" stroke="black" points="88.2991,-76.9516 85.9521,-87.2833 94.2297,-80.6702 88.2991,-76.9516"/>
<text text-anchor="middle" x="111.994" y="-57.8" font-family="Times,serif" font-size="14.00">done</text>
</g>
<!-- SecondS3Bucket&#45;&gt;SecondBucketStack -->
<g id="edge7" class="edge"><title>SecondS3Bucket&#45;&gt;SecondBucketStack</title>
<path fill="none" stroke="black" stroke-dasharray="5,2" d="M273.079,-36.1754C272.121,-47.806 270.836,-63.4194 269.739,-76.7339"/>
<polygon fill="black" stroke="black" points="266.243,-76.5454 268.91,-86.799 273.219,-77.12 266.243,-76.5454"/>
<text text-anchor="middle" x="284.994" y="-57.8" font-family="Times,serif" font-size="14.00">done</text>
</g>
</g>
</svg>
