<?xml version="1.0" encoding="UTF-8" standalone="no"?>
<!DOCTYPE svg PUBLIC "-//W3C//DTD SVG 1.1//EN"
 "http://www.w3.org/Graphics/SVG/1.1/DTD/svg11.dtd">
<!-- Generated by graphviz version 2.38.0 (20140413.2041)
 -->
<!-- Title: G Pages: 1 -->
<svg width="320pt" height="479pt"
 viewBox="0.00 0.00 319.79 479.00" xmlns="http://www.w3.org/2000/svg" xmlns:xlink="http://www.w3.org/1999/xlink">
<g id="graph0" class="graph" transform="scale(1 1) rotate(0) translate(4 475)">
<title>G</title>
<polygon fill="white" stroke="none" points="-4,4 -4,-475 315.794,-475 315.794,4 -4,4"/>
<!-- DatabaseStack -->
<g id="node1" class="node"><title>DatabaseStack</title>
<ellipse fill="none" stroke="black" cx="80.7935" cy="-366" rx="62.2891" ry="18"/>
<text text-anchor="middle" x="80.7935" y="-362.3" font-family="Times,serif" font-size="14.00">DatabaseStack</text>
</g>
<!-- ConnectionString -->
<g id="node2" class="node"><title>ConnectionString</title>
<ellipse fill="none" stroke="black" cx="72.7935" cy="-279" rx="72.5877" ry="18"/>
<text text-anchor="middle" x="72.7935" y="-275.3" font-family="Times,serif" font-size="14.00">ConnectionString</text>
</g>
<!-- DatabaseStack&#45;&gt;ConnectionString -->
<g id="edge1" class="edge"><title>DatabaseStack&#45;&gt;ConnectionString</title>
<path fill="none" stroke="black" d="M79.1746,-347.799C78.0794,-336.163 76.6098,-320.548 75.357,-307.237"/>
<polygon fill="black" stroke="black" points="78.8318,-306.803 74.4101,-297.175 71.8626,-307.459 78.8318,-306.803"/>
<text text-anchor="middle" x="97.7935" y="-318.8" font-family="Times,serif" font-size="14.00">exports</text>
</g>
<!-- WebsiteStack -->
<g id="node4" class="node"><title>WebsiteStack</title>
<ellipse fill="none" stroke="black" cx="155.794" cy="-192" rx="59.5901" ry="18"/>
<text text-anchor="middle" x="155.794" y="-188.3" font-family="Times,serif" font-size="14.00">WebsiteStack</text>
</g>
<!-- ConnectionString&#45;&gt;WebsiteStack -->
<g id="edge3" class="edge"><title>ConnectionString&#45;&gt;WebsiteStack</title>
<path fill="none" stroke="black" d="M81.3827,-261.05C87.1178,-250.761 95.3298,-237.773 104.794,-228 109.612,-223.024 115.24,-218.334 120.963,-214.101"/>
<polygon fill="black" stroke="black" points="123.145,-216.846 129.334,-208.247 119.134,-211.11 123.145,-216.846"/>
<text text-anchor="middle" x="138.794" y="-231.8" font-family="Times,serif" font-size="14.00">imported&#45;by</text>
</g>
<!-- You -->
<g id="node3" class="node"><title>You</title>
<ellipse fill="none" stroke="black" cx="200.794" cy="-453" rx="27" ry="18"/>
<text text-anchor="middle" x="200.794" y="-449.3" font-family="Times,serif" font-size="14.00">You</text>
</g>
<!-- You&#45;&gt;DatabaseStack -->
<g id="edge2" class="edge"><title>You&#45;&gt;DatabaseStack</title>
<path fill="none" stroke="black" d="M179.238,-442.052C166.198,-435.637 149.499,-426.699 135.794,-417 124.766,-409.196 113.56,-399.413 104.166,-390.575"/>
<polygon fill="black" stroke="black" points="106.378,-387.847 96.7443,-383.437 101.526,-392.892 106.378,-387.847"/>
<text text-anchor="middle" x="154.294" y="-405.8" font-family="Times,serif" font-size="14.00">update</text>
</g>
<!-- You&#45;&gt;WebsiteStack -->
<g id="edge5" class="edge"><title>You&#45;&gt;WebsiteStack</title>
<path fill="none" stroke="black" d="M201.639,-434.859C202.974,-396.585 203.195,-301.739 177.794,-228 176.695,-224.811 175.258,-221.613 173.644,-218.517"/>
<polygon fill="black" stroke="black" points="176.516,-216.495 168.434,-209.646 170.481,-220.041 176.516,-216.495"/>
<text text-anchor="middle" x="217.294" y="-318.8" font-family="Times,serif" font-size="14.00">update</text>
</g>
<!-- CustomCdn -->
<g id="node6" class="node"><title>CustomCdn</title>
<ellipse fill="none" stroke="black" cx="221.794" cy="-18" rx="53.0913" ry="18"/>
<text text-anchor="middle" x="221.794" y="-14.3" font-family="Times,serif" font-size="14.00">CustomCdn</text>
</g>
<!-- You&#45;&gt;CustomCdn -->
<g id="edge7" class="edge"><title>You&#45;&gt;CustomCdn</title>
<path fill="none" stroke="black" d="M220.624,-440.678C242.544,-426.518 274.794,-400.066 274.794,-367 274.794,-367 274.794,-367 274.794,-104 274.794,-80.7496 260.338,-58.601 246.526,-42.7448"/>
<polygon fill="black" stroke="black" points="248.791,-40.0379 239.442,-35.0541 243.643,-44.7805 248.791,-40.0379"/>
<text text-anchor="middle" x="293.294" y="-231.8" font-family="Times,serif" font-size="14.00">update</text>
</g>
<!-- ApplicationUrl -->
<g id="node5" class="node"><title>ApplicationUrl</title>
<ellipse fill="none" stroke="black" cx="155.794" cy="-105" rx="63.8893" ry="18"/>
<text text-anchor="middle" x="155.794" y="-101.3" font-family="Times,serif" font-size="14.00">ApplicationUrl</text>
</g>
<!-- WebsiteStack&#45;&gt;ApplicationUrl -->
<g id="edge4" class="edge"><title>WebsiteStack&#45;&gt;ApplicationUrl</title>
<path fill="none" stroke="black" d="M155.794,-173.799C155.794,-162.163 155.794,-146.548 155.794,-133.237"/>
<polygon fill="black" stroke="black" points="159.294,-133.175 155.794,-123.175 152.294,-133.175 159.294,-133.175"/>
<text text-anchor="middle" x="173.294" y="-144.8" font-family="Times,serif" font-size="14.00">export</text>
</g>
<!-- ApplicationUrl&#45;&gt;CustomCdn -->
<g id="edge6" class="edge"><title>ApplicationUrl&#45;&gt;CustomCdn</title>
<path fill="none" stroke="black" d="M161.494,-86.7208C165.372,-76.5579 171.184,-63.8176 178.794,-54 182.42,-49.3212 186.786,-44.8704 191.326,-40.8082"/>
<polygon fill="black" stroke="black" points="193.605,-43.4655 199.033,-34.3669 189.116,-38.0945 193.605,-43.4655"/>
<text text-anchor="middle" x="212.794" y="-57.8" font-family="Times,serif" font-size="14.00">imported&#45;by</text>
</g>
</g>
</svg>
