<?xml version="1.0" encoding="UTF-8" standalone="no"?>
<!DOCTYPE svg PUBLIC "-//W3C//DTD SVG 1.1//EN"
 "http://www.w3.org/Graphics/SVG/1.1/DTD/svg11.dtd">
<!-- Generated by graphviz version 2.38.0 (20140413.2041)
 -->
<!-- Title: G Pages: 1 -->
<svg width="96pt" height="479pt"
 viewBox="0.00 0.00 96.39 479.00" xmlns="http://www.w3.org/2000/svg" xmlns:xlink="http://www.w3.org/1999/xlink">
<g id="graph0" class="graph" transform="scale(1 1) rotate(0) translate(4 475)">
<title>G</title>
<polygon fill="white" stroke="none" points="-4,4 -4,-475 92.3922,-475 92.3922,4 -4,4"/>
<!-- You -->
<g id="node1" class="node"><title>You</title>
<ellipse fill="none" stroke="black" cx="44.1961" cy="-453" rx="27" ry="18"/>
<text text-anchor="middle" x="44.1961" y="-449.3" font-family="Times,serif" font-size="14.00">You</text>
</g>
<!-- TopStack -->
<g id="node2" class="node"><title>TopStack</title>
<ellipse fill="none" stroke="black" cx="44.1961" cy="-366" rx="44.393" ry="18"/>
<text text-anchor="middle" x="44.1961" y="-362.3" font-family="Times,serif" font-size="14.00">TopStack</text>
</g>
<!-- You&#45;&gt;TopStack -->
<g id="edge1" class="edge"><title>You&#45;&gt;TopStack</title>
<path fill="none" stroke="black" d="M28.9161,-438.138C23.492,-432.222 18.0325,-424.869 15.1961,-417 11.9974,-408.126 15.0577,-399.028 20.2118,-391.066"/>
<polygon fill="black" stroke="black" points="23.1339,-393.007 26.4293,-382.937 17.5739,-388.754 23.1339,-393.007"/>
<text text-anchor="middle" x="33.6961" y="-405.8" font-family="Times,serif" font-size="14.00">update</text>
</g>
<!-- TopStack&#45;&gt;You -->
<g id="edge10" class="edge"><title>TopStack&#45;&gt;You</title>
<path fill="none" stroke="black" d="M49.2506,-384.071C51.5194,-393.709 53.438,-405.993 52.1961,-417 51.8921,-419.694 51.4604,-422.484 50.9532,-425.258"/>
<polygon fill="black" stroke="black" points="47.529,-424.534 48.8786,-435.042 54.3767,-425.986 47.529,-424.534"/>
<text text-anchor="middle" x="65.6961" y="-405.8" font-family="Times,serif" font-size="14.00">done</text>
</g>
<!-- Stack1 -->
<g id="node3" class="node"><title>Stack1</title>
<ellipse fill="none" stroke="black" cx="44.1961" cy="-279" rx="34.394" ry="18"/>
<text text-anchor="middle" x="44.1961" y="-275.3" font-family="Times,serif" font-size="14.00">Stack1</text>
</g>
<!-- TopStack&#45;&gt;Stack1 -->
<g id="edge2" class="edge"><title>TopStack&#45;&gt;Stack1</title>
<path fill="none" stroke="black" d="M27.0764,-349.075C22.2895,-343.551 17.7114,-336.978 15.1961,-330 11.8623,-320.751 15.3273,-311.259 20.8756,-303.064"/>
<polygon fill="black" stroke="black" points="23.7509,-305.07 27.214,-295.058 18.2626,-300.725 23.7509,-305.07"/>
<text text-anchor="middle" x="33.6961" y="-318.8" font-family="Times,serif" font-size="14.00">update</text>
</g>
<!-- Stack1&#45;&gt;TopStack -->
<g id="edge3" class="edge"><title>Stack1&#45;&gt;TopStack</title>
<path fill="none" stroke="black" d="M49.2506,-297.071C51.5194,-306.709 53.438,-318.993 52.1961,-330 51.8921,-332.694 51.4604,-335.484 50.9532,-338.258"/>
<polygon fill="black" stroke="black" points="47.529,-337.534 48.8786,-348.042 54.3767,-338.986 47.529,-337.534"/>
<text text-anchor="middle" x="65.6961" y="-318.8" font-family="Times,serif" font-size="14.00">done</text>
</g>
<!-- Stack2 -->
<g id="node4" class="node"><title>Stack2</title>
<ellipse fill="none" stroke="black" cx="44.1961" cy="-192" rx="34.394" ry="18"/>
<text text-anchor="middle" x="44.1961" y="-188.3" font-family="Times,serif" font-size="14.00">Stack2</text>
</g>
<!-- Stack1&#45;&gt;Stack2 -->
<g id="edge4" class="edge"><title>Stack1&#45;&gt;Stack2</title>
<path fill="none" stroke="black" d="M27.6885,-262.774C22.6829,-257.109 17.8185,-250.275 15.1961,-243 11.8623,-233.751 15.3273,-224.259 20.8756,-216.064"/>
<polygon fill="black" stroke="black" points="23.7509,-218.07 27.214,-208.058 18.2626,-213.725 23.7509,-218.07"/>
<text text-anchor="middle" x="33.6961" y="-231.8" font-family="Times,serif" font-size="14.00">update</text>
</g>
<!-- Stack2&#45;&gt;Stack1 -->
<g id="edge5" class="edge"><title>Stack2&#45;&gt;Stack1</title>
<path fill="none" stroke="black" d="M49.2506,-210.071C51.5194,-219.709 53.438,-231.993 52.1961,-243 51.8921,-245.694 51.4604,-248.484 50.9532,-251.258"/>
<polygon fill="black" stroke="black" points="47.529,-250.534 48.8786,-261.042 54.3767,-251.986 47.529,-250.534"/>
<text text-anchor="middle" x="65.6961" y="-231.8" font-family="Times,serif" font-size="14.00">done</text>
</g>
<!-- Stack3 -->
<g id="node5" class="node"><title>Stack3</title>
<ellipse fill="none" stroke="black" cx="44.1961" cy="-105" rx="34.394" ry="18"/>
<text text-anchor="middle" x="44.1961" y="-101.3" font-family="Times,serif" font-size="14.00">Stack3</text>
</g>
<!-- Stack2&#45;&gt;Stack3 -->
<g id="edge6" class="edge"><title>Stack2&#45;&gt;Stack3</title>
<path fill="none" stroke="black" d="M27.6885,-175.774C22.6829,-170.109 17.8185,-163.275 15.1961,-156 11.8623,-146.751 15.3273,-137.259 20.8756,-129.064"/>
<polygon fill="black" stroke="black" points="23.7509,-131.07 27.214,-121.058 18.2626,-126.725 23.7509,-131.07"/>
<text text-anchor="middle" x="33.6961" y="-144.8" font-family="Times,serif" font-size="14.00">update</text>
</g>
<!-- Stack3&#45;&gt;Stack2 -->
<g id="edge7" class="edge"><title>Stack3&#45;&gt;Stack2</title>
<path fill="none" stroke="black" d="M49.2506,-123.071C51.5194,-132.709 53.438,-144.993 52.1961,-156 51.8921,-158.694 51.4604,-161.484 50.9532,-164.258"/>
<polygon fill="black" stroke="black" points="47.529,-163.534 48.8786,-174.042 54.3767,-164.986 47.529,-163.534"/>
<text text-anchor="middle" x="65.6961" y="-144.8" font-family="Times,serif" font-size="14.00">done</text>
</g>
<!-- Stack4 -->
<g id="node6" class="node"><title>Stack4</title>
<ellipse fill="none" stroke="black" cx="44.1961" cy="-18" rx="34.394" ry="18"/>
<text text-anchor="middle" x="44.1961" y="-14.3" font-family="Times,serif" font-size="14.00">Stack4</text>
</g>
<!-- Stack3&#45;&gt;Stack4 -->
<g id="edge8" class="edge"><title>Stack3&#45;&gt;Stack4</title>
<path fill="none" stroke="black" d="M27.6885,-88.7741C22.6829,-83.1094 17.8185,-76.2752 15.1961,-69 11.8623,-59.7514 15.3273,-50.2589 20.8756,-42.0636"/>
<polygon fill="black" stroke="black" points="23.7509,-44.0704 27.214,-34.0575 18.2626,-39.7254 23.7509,-44.0704"/>
<text text-anchor="middle" x="33.6961" y="-57.8" font-family="Times,serif" font-size="14.00">update</text>
</g>
<!-- Stack4&#45;&gt;Stack3 -->
<g id="edge9" class="edge"><title>Stack4&#45;&gt;Stack3</title>
<path fill="none" stroke="black" d="M49.2506,-36.0708C51.5194,-45.7088 53.438,-57.9932 52.1961,-69 51.8921,-71.6943 51.4604,-74.4835 50.9532,-77.2576"/>
<polygon fill="black" stroke="black" points="47.529,-76.5337 48.8786,-87.0422 54.3767,-77.9857 47.529,-76.5337"/>
<text text-anchor="middle" x="65.6961" y="-57.8" font-family="Times,serif" font-size="14.00">done</text>
</g>
</g>
</svg>
