<?xml version="1.0" encoding="UTF-8" standalone="no"?>
<!DOCTYPE svg PUBLIC "-//W3C//DTD SVG 1.1//EN"
 "http://www.w3.org/Graphics/SVG/1.1/DTD/svg11.dtd">
<!-- Generated by graphviz version 2.38.0 (20140413.2041)
 -->
<!-- Title: G Pages: 1 -->
<svg width="405pt" height="218pt"
 viewBox="0.00 0.00 405.20 218.00" xmlns="http://www.w3.org/2000/svg" xmlns:xlink="http://www.w3.org/1999/xlink">
<g id="graph0" class="graph" transform="scale(1 1) rotate(0) translate(4 214)">
<title>G</title>
<polygon fill="white" stroke="none" points="-4,4 -4,-214 401.204,-214 401.204,4 -4,4"/>
<!-- You -->
<g id="node1" class="node"><title>You</title>
<ellipse fill="none" stroke="black" cx="197.757" cy="-192" rx="27" ry="18"/>
<text text-anchor="middle" x="197.757" y="-188.3" font-family="Times,serif" font-size="14.00">You</text>
</g>
<!-- TopStack -->
<g id="node2" class="node"><title>TopStack</title>
<ellipse fill="none" stroke="black" cx="197.757" cy="-105" rx="44.393" ry="18"/>
<text text-anchor="middle" x="197.757" y="-101.3" font-family="Times,serif" font-size="14.00">TopStack</text>
</g>
<!-- You&#45;&gt;TopStack -->
<g id="edge1" class="edge"><title>You&#45;&gt;TopStack</title>
<path fill="none" stroke="black" d="M182.477,-177.138C177.053,-171.222 171.593,-163.869 168.757,-156 165.558,-147.126 168.619,-138.028 173.773,-130.066"/>
<polygon fill="black" stroke="black" points="176.695,-132.007 179.99,-121.937 171.135,-127.754 176.695,-132.007"/>
<text text-anchor="middle" x="187.257" y="-144.8" font-family="Times,serif" font-size="14.00">update</text>
</g>
<!-- TopStack&#45;&gt;You -->
<g id="edge10" class="edge"><title>TopStack&#45;&gt;You</title>
<path fill="none" stroke="black" d="M202.812,-123.071C205.08,-132.709 206.999,-144.993 205.757,-156 205.453,-158.694 205.021,-161.484 204.514,-164.258"/>
<polygon fill="black" stroke="black" points="201.09,-163.534 202.44,-174.042 207.938,-164.986 201.09,-163.534"/>
<text text-anchor="middle" x="220.257" y="-144.8" font-family="Times,serif" font-size="14.00">done</text>
</g>
<!-- Stack1 -->
<g id="node3" class="node"><title>Stack1</title>
<ellipse fill="none" stroke="black" cx="38.757" cy="-18" rx="34.394" ry="18"/>
<text text-anchor="middle" x="38.757" y="-14.3" font-family="Times,serif" font-size="14.00">Stack1</text>
</g>
<!-- TopStack&#45;&gt;Stack1 -->
<g id="edge2" class="edge"><title>TopStack&#45;&gt;Stack1</title>
<path fill="none" stroke="black" d="M154.003,-102.413C102.777,-99.5266 22.5217,-91.453 3.75703,-69 -3.91003,-59.8259 1.98126,-49.0254 10.9683,-39.8144"/>
<polygon fill="black" stroke="black" points="13.6017,-42.1501 18.6396,-32.8297 8.88898,-36.9742 13.6017,-42.1501"/>
<text text-anchor="middle" x="22.257" y="-57.8" font-family="Times,serif" font-size="14.00">update</text>
</g>
<!-- Stack2 -->
<g id="node4" class="node"><title>Stack2</title>
<ellipse fill="none" stroke="black" cx="136.757" cy="-18" rx="34.394" ry="18"/>
<text text-anchor="middle" x="136.757" y="-14.3" font-family="Times,serif" font-size="14.00">Stack2</text>
</g>
<!-- TopStack&#45;&gt;Stack2 -->
<g id="edge4" class="edge"><title>TopStack&#45;&gt;Stack2</title>
<path fill="none" stroke="black" d="M157.678,-97.3426C141.187,-92.4142 123.66,-83.8541 113.757,-69 108.407,-60.9753 110.852,-51.5055 115.776,-42.9778"/>
<polygon fill="black" stroke="black" points="118.801,-44.7554 121.582,-34.5321 113.033,-40.7897 118.801,-44.7554"/>
<text text-anchor="middle" x="132.257" y="-57.8" font-family="Times,serif" font-size="14.00">update</text>
</g>
<!-- Stack3 -->
<g id="node5" class="node"><title>Stack3</title>
<ellipse fill="none" stroke="black" cx="248.757" cy="-18" rx="34.394" ry="18"/>
<text text-anchor="middle" x="248.757" y="-14.3" font-family="Times,serif" font-size="14.00">Stack3</text>
</g>
<!-- TopStack&#45;&gt;Stack3 -->
<g id="edge6" class="edge"><title>TopStack&#45;&gt;Stack3</title>
<path fill="none" stroke="black" d="M205.849,-87.008C210.712,-77.1774 217.212,-64.6774 223.757,-54 225.891,-50.5183 228.254,-46.927 230.651,-43.4317"/>
<polygon fill="black" stroke="black" points="233.656,-45.2449 236.568,-35.0582 227.939,-41.2053 233.656,-45.2449"/>
<text text-anchor="middle" x="242.257" y="-57.8" font-family="Times,serif" font-size="14.00">update</text>
</g>
<!-- Stack4 -->
<g id="node6" class="node"><title>Stack4</title>
<ellipse fill="none" stroke="black" cx="362.757" cy="-18" rx="34.394" ry="18"/>
<text text-anchor="middle" x="362.757" y="-14.3" font-family="Times,serif" font-size="14.00">Stack4</text>
</g>
<!-- TopStack&#45;&gt;Stack4 -->
<g id="edge8" class="edge"><title>TopStack&#45;&gt;Stack4</title>
<path fill="none" stroke="black" d="M233.305,-94.1218C252.403,-88.1264 276.013,-79.5839 295.757,-69 310.62,-61.0329 325.792,-49.9984 337.932,-40.3218"/>
<polygon fill="black" stroke="black" points="340.275,-42.9275 345.811,-33.894 335.85,-37.5035 340.275,-42.9275"/>
<text text-anchor="middle" x="338.257" y="-57.8" font-family="Times,serif" font-size="14.00">update</text>
</g>
<!-- Stack1&#45;&gt;TopStack -->
<g id="edge3" class="edge"><title>Stack1&#45;&gt;TopStack</title>
<path fill="none" stroke="black" d="M48.6337,-35.6142C55.9456,-46.5706 66.8514,-60.4305 79.757,-69 99.8252,-82.3255 125.102,-90.7021 147.108,-95.9043"/>
<polygon fill="black" stroke="black" points="146.439,-99.3408 156.958,-98.0775 147.947,-92.5052 146.439,-99.3408"/>
<text text-anchor="middle" x="93.257" y="-57.8" font-family="Times,serif" font-size="14.00">done</text>
</g>
<!-- Stack2&#45;&gt;TopStack -->
<g id="edge5" class="edge"><title>Stack2&#45;&gt;TopStack</title>
<path fill="none" stroke="black" d="M148.275,-35.0503C157.213,-47.5046 169.761,-64.9888 179.984,-79.234"/>
<polygon fill="black" stroke="black" points="177.322,-81.5274 185.996,-87.6111 183.009,-77.4461 177.322,-81.5274"/>
<text text-anchor="middle" x="185.257" y="-57.8" font-family="Times,serif" font-size="14.00">done</text>
</g>
<!-- Stack3&#45;&gt;TopStack -->
<g id="edge7" class="edge"><title>Stack3&#45;&gt;TopStack</title>
<path fill="none" stroke="black" d="M258.682,-35.6801C263.356,-45.8679 266.733,-58.844 260.757,-69 256.004,-77.0777 248.639,-83.4249 240.597,-88.3626"/>
<polygon fill="black" stroke="black" points="238.823,-85.3429 231.696,-93.1827 242.156,-91.4982 238.823,-85.3429"/>
<text text-anchor="middle" x="278.257" y="-57.8" font-family="Times,serif" font-size="14.00">done</text>
</g>
<!-- Stack4&#45;&gt;TopStack -->
<g id="edge9" class="edge"><title>Stack4&#45;&gt;TopStack</title>
<path fill="none" stroke="black" d="M366.935,-36.1752C368.45,-46.8117 368.253,-60.0935 360.757,-69 346.724,-85.6728 292.802,-94.8411 250.773,-99.5647"/>
<polygon fill="black" stroke="black" points="250.221,-96.1037 240.648,-100.644 250.963,-103.064 250.221,-96.1037"/>
<text text-anchor="middle" x="381.257" y="-57.8" font-family="Times,serif" font-size="14.00">done</text>
</g>
</g>
</svg>
