<?xml version="1.0" encoding="UTF-8" standalone="no"?>
<!DOCTYPE svg PUBLIC "-//W3C//DTD SVG 1.1//EN"
 "http://www.w3.org/Graphics/SVG/1.1/DTD/svg11.dtd">
<!-- Generated by graphviz version 2.38.0 (20140413.2041)
 -->
<!-- Title: G Pages: 1 -->
<svg width="750pt" height="218pt"
 viewBox="0.00 0.00 749.98 218.00" xmlns="http://www.w3.org/2000/svg" xmlns:xlink="http://www.w3.org/1999/xlink">
<g id="graph0" class="graph" transform="scale(1 1) rotate(0) translate(4 214)">
<title>G</title>
<polygon fill="white" stroke="none" points="-4,4 -4,-214 745.984,-214 745.984,4 -4,4"/>
<!-- SportsbookIngestion -->
<g id="node1" class="node"><title>SportsbookIngestion</title>
<ellipse fill="none" stroke="black" cx="83.1926" cy="-192" rx="83.3857" ry="18"/>
<text text-anchor="middle" x="83.1926" y="-188.3" font-family="Times,serif" font-size="14.00">SportsbookIngestion</text>
</g>
<!-- Environment -->
<g id="node2" class="node"><title>Environment</title>
<ellipse fill="none" stroke="black" cx="355.193" cy="-105" rx="57.3905" ry="18"/>
<text text-anchor="middle" x="355.193" y="-101.3" font-family="Times,serif" font-size="14.00">Environment</text>
</g>
<!-- SportsbookIngestion&#45;&gt;Environment -->
<g id="edge1" class="edge"><title>SportsbookIngestion&#45;&gt;Environment</title>
<path fill="none" stroke="black" d="M128.413,-176.869C177.556,-161.511 255.802,-137.06 306.329,-121.27"/>
<polygon fill="black" stroke="black" points="307.547,-124.556 316.048,-118.233 305.459,-117.875 307.547,-124.556"/>
<text text-anchor="middle" x="246.693" y="-144.8" font-family="Times,serif" font-size="14.00">v43</text>
</g>
<!-- Test -->
<g id="node6" class="node"><title>Test</title>
<ellipse fill="none" stroke="black" cx="253.193" cy="-18" rx="27" ry="18"/>
<text text-anchor="middle" x="253.193" y="-14.3" font-family="Times,serif" font-size="14.00">Test</text>
</g>
<!-- Environment&#45;&gt;Test -->
<g id="edge5" class="edge"><title>Environment&#45;&gt;Test</title>
<path fill="none" stroke="black" d="M333.391,-87.9622C325.647,-82.1221 316.934,-75.3848 309.193,-69 298.085,-59.8392 286.136,-49.274 276.14,-40.2224"/>
<polygon fill="black" stroke="black" points="278.343,-37.4949 268.596,-33.3434 273.627,-42.6675 278.343,-37.4949"/>
<text text-anchor="middle" x="327.693" y="-57.8" font-family="Times,serif" font-size="14.00">deploy</text>
</g>
<!-- PreProd -->
<g id="node7" class="node"><title>PreProd</title>
<ellipse fill="none" stroke="black" cx="355.193" cy="-18" rx="38.9931" ry="18"/>
<text text-anchor="middle" x="355.193" y="-14.3" font-family="Times,serif" font-size="14.00">PreProd</text>
</g>
<!-- Environment&#45;&gt;PreProd -->
<g id="edge6" class="edge"><title>Environment&#45;&gt;PreProd</title>
<path fill="none" stroke="black" d="M355.193,-86.799C355.193,-75.1626 355.193,-59.5479 355.193,-46.2368"/>
<polygon fill="black" stroke="black" points="358.693,-46.1754 355.193,-36.1754 351.693,-46.1755 358.693,-46.1754"/>
<text text-anchor="middle" x="373.693" y="-57.8" font-family="Times,serif" font-size="14.00">deploy</text>
</g>
<!-- Prod -->
<g id="node8" class="node"><title>Prod</title>
<ellipse fill="none" stroke="black" cx="457.193" cy="-18" rx="27.0966" ry="18"/>
<text text-anchor="middle" x="457.193" y="-14.3" font-family="Times,serif" font-size="14.00">Prod</text>
</g>
<!-- Environment&#45;&gt;Prod -->
<g id="edge7" class="edge"><title>Environment&#45;&gt;Prod</title>
<path fill="none" stroke="black" d="M376.995,-87.9622C384.738,-82.1221 393.451,-75.3848 401.193,-69 412.3,-59.8392 424.249,-49.274 434.245,-40.2224"/>
<polygon fill="black" stroke="black" points="436.758,-42.6675 441.79,-33.3434 432.042,-37.4949 436.758,-42.6675"/>
<text text-anchor="middle" x="470.693" y="-57.8" font-family="Times,serif" font-size="14.00">deploy CHG44950</text>
</g>
<!-- CasinoIngestion -->
<g id="node3" class="node"><title>CasinoIngestion</title>
<ellipse fill="none" stroke="black" cx="270.193" cy="-192" rx="67.6881" ry="18"/>
<text text-anchor="middle" x="270.193" y="-188.3" font-family="Times,serif" font-size="14.00">CasinoIngestion</text>
</g>
<!-- CasinoIngestion&#45;&gt;Environment -->
<g id="edge2" class="edge"><title>CasinoIngestion&#45;&gt;Environment</title>
<path fill="none" stroke="black" d="M286.986,-174.207C299.641,-161.552 317.167,-144.026 331.284,-129.909"/>
<polygon fill="black" stroke="black" points="334.127,-132.015 338.723,-122.469 329.177,-127.065 334.127,-132.015"/>
<text text-anchor="middle" x="325.193" y="-144.8" font-family="Times,serif" font-size="14.00">v2</text>
</g>
<!-- DataWarehouse -->
<g id="node4" class="node"><title>DataWarehouse</title>
<ellipse fill="none" stroke="black" cx="441.193" cy="-192" rx="67.6881" ry="18"/>
<text text-anchor="middle" x="441.193" y="-188.3" font-family="Times,serif" font-size="14.00">DataWarehouse</text>
</g>
<!-- DataWarehouse&#45;&gt;Environment -->
<g id="edge3" class="edge"><title>DataWarehouse&#45;&gt;Environment</title>
<path fill="none" stroke="black" d="M424.202,-174.207C411.279,-161.435 393.337,-143.701 378.987,-129.518"/>
<polygon fill="black" stroke="black" points="381.428,-127.009 371.856,-122.469 376.507,-131.988 381.428,-127.009"/>
<text text-anchor="middle" x="418.193" y="-144.8" font-family="Times,serif" font-size="14.00">v665</text>
</g>
<!-- GoogleAnalyicsGateway -->
<g id="node5" class="node"><title>GoogleAnalyicsGateway</title>
<ellipse fill="none" stroke="black" cx="643.193" cy="-192" rx="98.5829" ry="18"/>
<text text-anchor="middle" x="643.193" y="-188.3" font-family="Times,serif" font-size="14.00">GoogleAnalyicsGateway</text>
</g>
<!-- GoogleAnalyicsGateway&#45;&gt;Environment -->
<g id="edge4" class="edge"><title>GoogleAnalyicsGateway&#45;&gt;Environment</title>
<path fill="none" stroke="black" d="M593.684,-176.388C541.105,-160.87 458.433,-136.47 405.538,-120.859"/>
<polygon fill="black" stroke="black" points="406.28,-117.429 395.698,-117.955 404.298,-124.142 406.28,-117.429"/>
<text text-anchor="middle" x="524.193" y="-144.8" font-family="Times,serif" font-size="14.00">v4</text>
</g>
</g>
</svg>
