<?xml version="1.0" encoding="UTF-8" standalone="no"?>
<!DOCTYPE svg PUBLIC "-//W3C//DTD SVG 1.1//EN"
 "http://www.w3.org/Graphics/SVG/1.1/DTD/svg11.dtd">
<!-- Generated by graphviz version 2.38.0 (20140413.2041)
 -->
<!-- Title: G Pages: 1 -->
<svg width="253pt" height="305pt"
 viewBox="0.00 0.00 252.94 305.00" xmlns="http://www.w3.org/2000/svg" xmlns:xlink="http://www.w3.org/1999/xlink">
<g id="graph0" class="graph" transform="scale(1 1) rotate(0) translate(4 301)">
<title>G</title>
<polygon fill="white" stroke="none" points="-4,4 -4,-301 248.935,-301 248.935,4 -4,4"/>
<!-- You -->
<g id="node1" class="node"><title>You</title>
<ellipse fill="none" stroke="black" cx="75.4897" cy="-279" rx="27" ry="18"/>
<text text-anchor="middle" x="75.4897" y="-275.3" font-family="Times,serif" font-size="14.00">You</text>
</g>
<!-- NetStack -->
<g id="node2" class="node"><title>NetStack</title>
<ellipse fill="none" stroke="black" cx="88.4897" cy="-18" rx="42.7926" ry="18"/>
<text text-anchor="middle" x="88.4897" y="-14.3" font-family="Times,serif" font-size="14.00">NetStack</text>
</g>
<!-- You&#45;&gt;NetStack -->
<g id="edge1" class="edge"><title>You&#45;&gt;NetStack</title>
<path fill="none" stroke="black" d="M62.2333,-262.755C35.3362,-229.873 -20.7148,-150.153 8.48967,-87 18.0021,-66.43 37.1439,-49.8013 54.3184,-38.1373"/>
<polygon fill="black" stroke="black" points="56.555,-40.8595 63.0588,-32.4958 52.7589,-34.9782 56.555,-40.8595"/>
<text text-anchor="middle" x="23.9897" y="-144.8" font-family="Times,serif" font-size="14.00">change</text>
</g>
<!-- DatabaseStack -->
<g id="node3" class="node"><title>DatabaseStack</title>
<ellipse fill="none" stroke="black" cx="88.4897" cy="-105" rx="62.2891" ry="18"/>
<text text-anchor="middle" x="88.4897" y="-101.3" font-family="Times,serif" font-size="14.00">DatabaseStack</text>
</g>
<!-- You&#45;&gt;DatabaseStack -->
<g id="edge2" class="edge"><title>You&#45;&gt;DatabaseStack</title>
<path fill="none" stroke="black" d="M76.7837,-260.879C79.0419,-231.001 83.7195,-169.113 86.4283,-133.274"/>
<polygon fill="black" stroke="black" points="89.9372,-133.287 87.2009,-123.052 82.9571,-132.759 89.9372,-133.287"/>
<text text-anchor="middle" x="101.99" y="-188.3" font-family="Times,serif" font-size="14.00">change</text>
</g>
<!-- WebStack -->
<g id="node4" class="node"><title>WebStack</title>
<ellipse fill="none" stroke="black" cx="197.49" cy="-192" rx="47.3916" ry="18"/>
<text text-anchor="middle" x="197.49" y="-188.3" font-family="Times,serif" font-size="14.00">WebStack</text>
</g>
<!-- You&#45;&gt;WebStack -->
<g id="edge3" class="edge"><title>You&#45;&gt;WebStack</title>
<path fill="none" stroke="black" d="M93.4912,-265.458C112.886,-251.945 144.082,-230.211 167.254,-214.066"/>
<polygon fill="black" stroke="black" points="169.496,-216.769 175.701,-208.181 165.495,-211.026 169.496,-216.769"/>
<text text-anchor="middle" x="162.99" y="-231.8" font-family="Times,serif" font-size="14.00">change</text>
</g>
<!-- DatabaseStack&#45;&gt;NetStack -->
<g id="edge4" class="edge"><title>DatabaseStack&#45;&gt;NetStack</title>
<path fill="none" stroke="black" d="M88.4897,-86.799C88.4897,-75.1626 88.4897,-59.5479 88.4897,-46.2368"/>
<polygon fill="black" stroke="black" points="91.9898,-46.1754 88.4897,-36.1754 84.9898,-46.1755 91.9898,-46.1754"/>
<text text-anchor="middle" x="96.4897" y="-57.8" font-family="Times,serif" font-size="14.00">ref</text>
</g>
<!-- WebStack&#45;&gt;NetStack -->
<g id="edge5" class="edge"><title>WebStack&#45;&gt;NetStack</title>
<path fill="none" stroke="black" d="M195.832,-173.906C193.065,-152.208 185.965,-114.316 168.49,-87 156.193,-67.7785 136.794,-51.0959 120.178,-39.0652"/>
<polygon fill="black" stroke="black" points="121.998,-36.0667 111.795,-33.2091 117.989,-41.8052 121.998,-36.0667"/>
<text text-anchor="middle" x="192.49" y="-101.3" font-family="Times,serif" font-size="14.00">ref</text>
</g>
<!-- WebStack&#45;&gt;DatabaseStack -->
<g id="edge6" class="edge"><title>WebStack&#45;&gt;DatabaseStack</title>
<path fill="none" stroke="black" d="M177.751,-175.607C160.863,-162.438 136.334,-143.31 117.261,-128.436"/>
<polygon fill="black" stroke="black" points="119.232,-125.535 109.194,-122.146 114.928,-131.055 119.232,-125.535"/>
<text text-anchor="middle" x="157.49" y="-144.8" font-family="Times,serif" font-size="14.00">ref</text>
</g>
</g>
</svg>
