<?xml version="1.0" encoding="UTF-8" standalone="no"?>
<!DOCTYPE svg PUBLIC "-//W3C//DTD SVG 1.1//EN"
 "http://www.w3.org/Graphics/SVG/1.1/DTD/svg11.dtd">
<!-- Generated by graphviz version 2.38.0 (20140413.2041)
 -->
<!-- Title: G Pages: 1 -->
<svg width="97pt" height="479pt"
 viewBox="0.00 0.00 97.13 479.00" xmlns="http://www.w3.org/2000/svg" xmlns:xlink="http://www.w3.org/1999/xlink">
<g id="graph0" class="graph" transform="scale(1 1) rotate(0) translate(4 475)">
<title>G</title>
<polygon fill="white" stroke="none" points="-4,4 -4,-475 93.1291,-475 93.1291,4 -4,4"/>
<!-- You -->
<g id="node1" class="node"><title>You</title>
<ellipse fill="none" stroke="black" cx="44.933" cy="-453" rx="27" ry="18"/>
<text text-anchor="middle" x="44.933" y="-449.3" font-family="Times,serif" font-size="14.00">You</text>
</g>
<!-- TopStack -->
<g id="node2" class="node"><title>TopStack</title>
<ellipse fill="none" stroke="black" cx="44.933" cy="-366" rx="44.393" ry="18"/>
<text text-anchor="middle" x="44.933" y="-362.3" font-family="Times,serif" font-size="14.00">TopStack</text>
</g>
<!-- You&#45;&gt;TopStack -->
<g id="edge1" class="edge"><title>You&#45;&gt;TopStack</title>
<path fill="none" stroke="black" d="M24.2688,-440.788C15.6871,-434.935 6.6447,-426.91 1.93305,-417 -3.22605,-406.149 3.071,-395.792 12.2985,-387.347"/>
<polygon fill="black" stroke="black" points="14.5715,-390.01 20.1641,-381.012 10.1806,-384.559 14.5715,-390.01"/>
<text text-anchor="middle" x="20.433" y="-405.8" font-family="Times,serif" font-size="14.00">update</text>
</g>
<!-- TopStack&#45;&gt;You -->
<g id="edge10" class="edge"><title>TopStack&#45;&gt;You</title>
<path fill="none" stroke="black" d="M44.933,-384.175C44.933,-395.806 44.933,-411.419 44.933,-424.734"/>
<polygon fill="black" stroke="black" points="41.4331,-424.799 44.933,-434.799 48.4331,-424.799 41.4331,-424.799"/>
<text text-anchor="middle" x="58.433" y="-405.8" font-family="Times,serif" font-size="14.00">done</text>
</g>
<!-- Stack1 -->
<g id="node3" class="node"><title>Stack1</title>
<ellipse fill="none" stroke="black" cx="44.933" cy="-279" rx="34.394" ry="18"/>
<text text-anchor="middle" x="44.933" y="-275.3" font-family="Times,serif" font-size="14.00">Stack1</text>
</g>
<!-- TopStack&#45;&gt;Stack1 -->
<g id="edge2" class="edge"><title>TopStack&#45;&gt;Stack1</title>
<path fill="none" stroke="black" d="M20.1882,-350.854C12.9396,-345.354 5.90075,-338.345 1.93305,-330 -3.55135,-318.464 3.91065,-307.487 14.0768,-298.773"/>
<polygon fill="black" stroke="black" points="16.3747,-301.422 22.2083,-292.578 12.1327,-295.854 16.3747,-301.422"/>
<text text-anchor="middle" x="20.433" y="-318.8" font-family="Times,serif" font-size="14.00">update</text>
</g>
<!-- Stack1&#45;&gt;TopStack -->
<g id="edge3" class="edge"><title>Stack1&#45;&gt;TopStack</title>
<path fill="none" stroke="black" d="M44.933,-297.175C44.933,-308.806 44.933,-324.419 44.933,-337.734"/>
<polygon fill="black" stroke="black" points="41.4331,-337.799 44.933,-347.799 48.4331,-337.799 41.4331,-337.799"/>
<text text-anchor="middle" x="58.433" y="-318.8" font-family="Times,serif" font-size="14.00">done</text>
</g>
<!-- Stack2 -->
<g id="node4" class="node"><title>Stack2</title>
<ellipse fill="none" stroke="black" cx="44.933" cy="-192" rx="34.394" ry="18"/>
<text text-anchor="middle" x="44.933" y="-188.3" font-family="Times,serif" font-size="14.00">Stack2</text>
</g>
<!-- Stack1&#45;&gt;Stack2 -->
<g id="edge4" class="edge"><title>Stack1&#45;&gt;Stack2</title>
<path fill="none" stroke="black" d="M22.003,-265.198C14.134,-259.512 6.23139,-252.041 1.93305,-243 -3.55135,-231.464 3.91065,-220.487 14.0768,-211.773"/>
<polygon fill="black" stroke="black" points="16.3747,-214.422 22.2083,-205.578 12.1327,-208.854 16.3747,-214.422"/>
<text text-anchor="middle" x="20.433" y="-231.8" font-family="Times,serif" font-size="14.00">update</text>
</g>
<!-- Stack2&#45;&gt;Stack1 -->
<g id="edge5" class="edge"><title>Stack2&#45;&gt;Stack1</title>
<path fill="none" stroke="black" d="M44.933,-210.175C44.933,-221.806 44.933,-237.419 44.933,-250.734"/>
<polygon fill="black" stroke="black" points="41.4331,-250.799 44.933,-260.799 48.4331,-250.799 41.4331,-250.799"/>
<text text-anchor="middle" x="58.433" y="-231.8" font-family="Times,serif" font-size="14.00">done</text>
</g>
<!-- Stack3 -->
<g id="node5" class="node"><title>Stack3</title>
<ellipse fill="none" stroke="black" cx="44.933" cy="-105" rx="34.394" ry="18"/>
<text text-anchor="middle" x="44.933" y="-101.3" font-family="Times,serif" font-size="14.00">Stack3</text>
</g>
<!-- Stack2&#45;&gt;Stack3 -->
<g id="edge6" class="edge"><title>Stack2&#45;&gt;Stack3</title>
<path fill="none" stroke="black" d="M22.003,-178.198C14.134,-172.512 6.23139,-165.041 1.93305,-156 -3.55135,-144.464 3.91065,-133.487 14.0768,-124.773"/>
<polygon fill="black" stroke="black" points="16.3747,-127.422 22.2083,-118.578 12.1327,-121.854 16.3747,-127.422"/>
<text text-anchor="middle" x="20.433" y="-144.8" font-family="Times,serif" font-size="14.00">update</text>
</g>
<!-- Stack3&#45;&gt;Stack2 -->
<g id="edge7" class="edge"><title>Stack3&#45;&gt;Stack2</title>
<path fill="none" stroke="black" d="M44.933,-123.175C44.933,-134.806 44.933,-150.419 44.933,-163.734"/>
<polygon fill="black" stroke="black" points="41.4331,-163.799 44.933,-173.799 48.4331,-163.799 41.4331,-163.799"/>
<text text-anchor="middle" x="58.433" y="-144.8" font-family="Times,serif" font-size="14.00">done</text>
</g>
<!-- Stack4 -->
<g id="node6" class="node"><title>Stack4</title>
<ellipse fill="none" stroke="black" cx="44.933" cy="-18" rx="34.394" ry="18"/>
<text text-anchor="middle" x="44.933" y="-14.3" font-family="Times,serif" font-size="14.00">Stack4</text>
</g>
<!-- Stack3&#45;&gt;Stack4 -->
<g id="edge8" class="edge"><title>Stack3&#45;&gt;Stack4</title>
<path fill="none" stroke="black" d="M22.003,-91.1976C14.134,-85.5124 6.23139,-78.0409 1.93305,-69 -3.55135,-57.4644 3.91065,-46.4874 14.0768,-37.7728"/>
<polygon fill="black" stroke="black" points="16.3747,-40.4222 22.2083,-31.5779 12.1327,-34.8539 16.3747,-40.4222"/>
<text text-anchor="middle" x="20.433" y="-57.8" font-family="Times,serif" font-size="14.00">update</text>
</g>
<!-- Stack4&#45;&gt;Stack3 -->
<g id="edge9" class="edge"><title>Stack4&#45;&gt;Stack3</title>
<path fill="none" stroke="black" d="M44.933,-36.1754C44.933,-47.806 44.933,-63.4194 44.933,-76.7339"/>
<polygon fill="black" stroke="black" points="41.4331,-76.7989 44.933,-86.799 48.4331,-76.799 41.4331,-76.7989"/>
<text text-anchor="middle" x="58.433" y="-57.8" font-family="Times,serif" font-size="14.00">done</text>
</g>
</g>
</svg>
