<?xml version="1.0" encoding="UTF-8" standalone="no"?>
<!DOCTYPE svg PUBLIC "-//W3C//DTD SVG 1.1//EN"
 "http://www.w3.org/Graphics/SVG/1.1/DTD/svg11.dtd">
<!-- Generated by graphviz version 2.38.0 (20140413.2041)
 -->
<!-- Title: G Pages: 1 -->
<svg width="253pt" height="392pt"
 viewBox="0.00 0.00 252.94 392.00" xmlns="http://www.w3.org/2000/svg" xmlns:xlink="http://www.w3.org/1999/xlink">
<g id="graph0" class="graph" transform="scale(1 1) rotate(0) translate(4 388)">
<title>G</title>
<polygon fill="white" stroke="none" points="-4,4 -4,-388 248.938,-388 248.938,4 -4,4"/>
<!-- You -->
<g id="node1" class="node"><title>You</title>
<ellipse fill="none" stroke="black" cx="75.4927" cy="-366" rx="27" ry="18"/>
<text text-anchor="middle" x="75.4927" y="-362.3" font-family="Times,serif" font-size="14.00">You</text>
</g>
<!-- EnvStack -->
<g id="node2" class="node"><title>EnvStack</title>
<ellipse fill="none" stroke="black" cx="75.4927" cy="-279" rx="44.393" ry="18"/>
<text text-anchor="middle" x="75.4927" y="-275.3" font-family="Times,serif" font-size="14.00">EnvStack</text>
</g>
<!-- You&#45;&gt;EnvStack -->
<g id="edge1" class="edge"><title>You&#45;&gt;EnvStack</title>
<path fill="none" stroke="black" d="M75.4927,-347.799C75.4927,-336.163 75.4927,-320.548 75.4927,-307.237"/>
<polygon fill="black" stroke="black" points="78.9928,-307.175 75.4927,-297.175 71.9928,-307.175 78.9928,-307.175"/>
<text text-anchor="middle" x="94.9927" y="-318.8" font-family="Times,serif" font-size="14.00">change</text>
</g>
<!-- NetStack -->
<g id="node3" class="node"><title>NetStack</title>
<ellipse fill="none" stroke="black" cx="88.4927" cy="-18" rx="42.7926" ry="18"/>
<text text-anchor="middle" x="88.4927" y="-14.3" font-family="Times,serif" font-size="14.00">NetStack</text>
</g>
<!-- EnvStack&#45;&gt;NetStack -->
<g id="edge2" class="edge"><title>EnvStack&#45;&gt;NetStack</title>
<path fill="none" stroke="black" d="M61.4125,-261.744C34.2156,-228.265 -20.4168,-149.515 8.49269,-87 18.0051,-66.43 37.147,-49.8013 54.3214,-38.1373"/>
<polygon fill="black" stroke="black" points="56.5581,-40.8595 63.0619,-32.4958 52.7619,-34.9782 56.5581,-40.8595"/>
<text text-anchor="middle" x="23.9927" y="-144.8" font-family="Times,serif" font-size="14.00">change</text>
</g>
<!-- DatabaseStack -->
<g id="node4" class="node"><title>DatabaseStack</title>
<ellipse fill="none" stroke="black" cx="88.4927" cy="-105" rx="62.2891" ry="18"/>
<text text-anchor="middle" x="88.4927" y="-101.3" font-family="Times,serif" font-size="14.00">DatabaseStack</text>
</g>
<!-- EnvStack&#45;&gt;DatabaseStack -->
<g id="edge3" class="edge"><title>EnvStack&#45;&gt;DatabaseStack</title>
<path fill="none" stroke="black" d="M76.7867,-260.879C79.0449,-231.001 83.7225,-169.113 86.4313,-133.274"/>
<polygon fill="black" stroke="black" points="89.9402,-133.287 87.2039,-123.052 82.9601,-132.759 89.9402,-133.287"/>
<text text-anchor="middle" x="101.993" y="-188.3" font-family="Times,serif" font-size="14.00">change</text>
</g>
<!-- WebStack -->
<g id="node5" class="node"><title>WebStack</title>
<ellipse fill="none" stroke="black" cx="197.493" cy="-192" rx="47.3916" ry="18"/>
<text text-anchor="middle" x="197.493" y="-188.3" font-family="Times,serif" font-size="14.00">WebStack</text>
</g>
<!-- EnvStack&#45;&gt;WebStack -->
<g id="edge4" class="edge"><title>EnvStack&#45;&gt;WebStack</title>
<path fill="none" stroke="black" d="M96.7435,-263.194C116.271,-249.589 145.423,-229.278 167.352,-213.999"/>
<polygon fill="black" stroke="black" points="169.46,-216.797 175.664,-208.209 165.458,-211.053 169.46,-216.797"/>
<text text-anchor="middle" x="162.993" y="-231.8" font-family="Times,serif" font-size="14.00">change</text>
</g>
<!-- DatabaseStack&#45;&gt;NetStack -->
<g id="edge5" class="edge"><title>DatabaseStack&#45;&gt;NetStack</title>
<path fill="none" stroke="black" d="M88.4927,-86.799C88.4927,-75.1626 88.4927,-59.5479 88.4927,-46.2368"/>
<polygon fill="black" stroke="black" points="91.9928,-46.1754 88.4927,-36.1754 84.9928,-46.1755 91.9928,-46.1754"/>
<text text-anchor="middle" x="96.4927" y="-57.8" font-family="Times,serif" font-size="14.00">ref</text>
</g>
<!-- WebStack&#45;&gt;NetStack -->
<g id="edge6" class="edge"><title>WebStack&#45;&gt;NetStack</title>
<path fill="none" stroke="black" d="M195.835,-173.906C193.068,-152.208 185.968,-114.316 168.493,-87 156.196,-67.7785 136.797,-51.0959 120.181,-39.0652"/>
<polygon fill="black" stroke="black" points="122.001,-36.0667 111.798,-33.2091 117.992,-41.8052 122.001,-36.0667"/>
<text text-anchor="middle" x="192.493" y="-101.3" font-family="Times,serif" font-size="14.00">ref</text>
</g>
<!-- WebStack&#45;&gt;DatabaseStack -->
<g id="edge7" class="edge"><title>WebStack&#45;&gt;DatabaseStack</title>
<path fill="none" stroke="black" d="M177.754,-175.607C160.866,-162.438 136.337,-143.31 117.264,-128.436"/>
<polygon fill="black" stroke="black" points="119.235,-125.535 109.197,-122.146 114.931,-131.055 119.235,-125.535"/>
<text text-anchor="middle" x="157.493" y="-144.8" font-family="Times,serif" font-size="14.00">ref</text>
</g>
</g>
</svg>
