<?xml version="1.0" encoding="UTF-8" standalone="no"?>
<!DOCTYPE svg PUBLIC "-//W3C//DTD SVG 1.1//EN"
 "http://www.w3.org/Graphics/SVG/1.1/DTD/svg11.dtd">
<!-- Generated by graphviz version 2.38.0 (20140413.2041)
 -->
<!-- Title: G Pages: 1 -->
<svg width="527pt" height="218pt"
 viewBox="0.00 0.00 527.31 218.00" xmlns="http://www.w3.org/2000/svg" xmlns:xlink="http://www.w3.org/1999/xlink">
<g id="graph0" class="graph" transform="scale(1 1) rotate(0) translate(4 214)">
<title>G</title>
<polygon fill="white" stroke="none" points="-4,4 -4,-214 523.313,-214 523.313,4 -4,4"/>
<!-- You -->
<g id="node1" class="node"><title>You</title>
<ellipse fill="none" stroke="black" cx="265.866" cy="-192" rx="27" ry="18"/>
<text text-anchor="middle" x="265.866" y="-188.3" font-family="Times,serif" font-size="14.00">You</text>
</g>
<!-- TopStack -->
<g id="node2" class="node"><title>TopStack</title>
<ellipse fill="none" stroke="black" cx="265.866" cy="-105" rx="44.393" ry="18"/>
<text text-anchor="middle" x="265.866" y="-101.3" font-family="Times,serif" font-size="14.00">TopStack</text>
</g>
<!-- You&#45;&gt;TopStack -->
<g id="edge1" class="edge"><title>You&#45;&gt;TopStack</title>
<path fill="none" stroke="black" d="M245.479,-179.983C231.099,-170.623 215.59,-156.303 222.866,-141 225.407,-135.654 229.21,-130.856 233.52,-126.652"/>
<polygon fill="black" stroke="black" points="235.8,-129.308 241.121,-120.146 231.248,-123.99 235.8,-129.308"/>
<text text-anchor="middle" x="241.366" y="-144.8" font-family="Times,serif" font-size="14.00">update</text>
</g>
<!-- TopStack&#45;&gt;You -->
<g id="edge10" class="edge"><title>TopStack&#45;&gt;You</title>
<path fill="none" stroke="black" d="M265.866,-123.175C265.866,-134.806 265.866,-150.419 265.866,-163.734"/>
<polygon fill="black" stroke="black" points="262.366,-163.799 265.866,-173.799 269.366,-163.799 262.366,-163.799"/>
<text text-anchor="middle" x="279.366" y="-144.8" font-family="Times,serif" font-size="14.00">done</text>
</g>
<!-- Stack1 -->
<g id="node3" class="node"><title>Stack1</title>
<ellipse fill="none" stroke="black" cx="56.8657" cy="-18" rx="34.394" ry="18"/>
<text text-anchor="middle" x="56.8657" y="-14.3" font-family="Times,serif" font-size="14.00">Stack1</text>
</g>
<!-- TopStack&#45;&gt;Stack1 -->
<g id="edge2" class="edge"><title>TopStack&#45;&gt;Stack1</title>
<path fill="none" stroke="black" d="M221.4,-104.792C154.188,-104.928 31.5968,-100.682 3.86565,-69 -6.74926,-56.8728 6.32886,-44.4322 22.1461,-34.9939"/>
<polygon fill="black" stroke="black" points="24.0058,-37.9656 31.0821,-30.0804 20.633,-31.8317 24.0058,-37.9656"/>
<text text-anchor="middle" x="22.3657" y="-57.8" font-family="Times,serif" font-size="14.00">update</text>
</g>
<!-- Stack2 -->
<g id="node4" class="node"><title>Stack2</title>
<ellipse fill="none" stroke="black" cx="181.866" cy="-18" rx="34.394" ry="18"/>
<text text-anchor="middle" x="181.866" y="-14.3" font-family="Times,serif" font-size="14.00">Stack2</text>
</g>
<!-- TopStack&#45;&gt;Stack2 -->
<g id="edge4" class="edge"><title>TopStack&#45;&gt;Stack2</title>
<path fill="none" stroke="black" d="M221.948,-102.974C196.517,-99.8338 166.36,-91.2059 149.866,-69 143.144,-59.951 148.007,-49.5073 155.783,-40.5125"/>
<polygon fill="black" stroke="black" points="158.298,-42.9465 162.809,-33.3601 153.305,-38.041 158.298,-42.9465"/>
<text text-anchor="middle" x="168.366" y="-57.8" font-family="Times,serif" font-size="14.00">update</text>
</g>
<!-- Stack3 -->
<g id="node5" class="node"><title>Stack3</title>
<ellipse fill="none" stroke="black" cx="338.866" cy="-18" rx="34.394" ry="18"/>
<text text-anchor="middle" x="338.866" y="-14.3" font-family="Times,serif" font-size="14.00">Stack3</text>
</g>
<!-- TopStack&#45;&gt;Stack3 -->
<g id="edge6" class="edge"><title>TopStack&#45;&gt;Stack3</title>
<path fill="none" stroke="black" d="M274.003,-87.2795C279.412,-77.0765 287.115,-64.0987 295.866,-54 300.251,-48.9397 305.427,-44.0452 310.642,-39.6"/>
<polygon fill="black" stroke="black" points="313.191,-42.0392 318.759,-33.0253 308.786,-36.5996 313.191,-42.0392"/>
<text text-anchor="middle" x="314.366" y="-57.8" font-family="Times,serif" font-size="14.00">update</text>
</g>
<!-- Stack4 -->
<g id="node6" class="node"><title>Stack4</title>
<ellipse fill="none" stroke="black" cx="484.866" cy="-18" rx="34.394" ry="18"/>
<text text-anchor="middle" x="484.866" y="-14.3" font-family="Times,serif" font-size="14.00">Stack4</text>
</g>
<!-- TopStack&#45;&gt;Stack4 -->
<g id="edge8" class="edge"><title>TopStack&#45;&gt;Stack4</title>
<path fill="none" stroke="black" d="M301.678,-94.3028C324.121,-87.8841 353.5,-78.8545 378.866,-69 404.03,-59.2235 431.583,-46.1502 452.289,-35.8236"/>
<polygon fill="black" stroke="black" points="453.93,-38.9164 461.288,-31.2939 450.782,-32.6639 453.93,-38.9164"/>
<text text-anchor="middle" x="430.366" y="-57.8" font-family="Times,serif" font-size="14.00">update</text>
</g>
<!-- Stack1&#45;&gt;TopStack -->
<g id="edge3" class="edge"><title>Stack1&#45;&gt;TopStack</title>
<path fill="none" stroke="black" d="M69.9026,-34.8874C79.9524,-46.0898 94.8111,-60.5494 110.866,-69 142.449,-85.6242 181.696,-94.3847 212.795,-98.9837"/>
<polygon fill="black" stroke="black" points="212.623,-102.493 223.007,-100.389 213.577,-95.5583 212.623,-102.493"/>
<text text-anchor="middle" x="124.366" y="-57.8" font-family="Times,serif" font-size="14.00">done</text>
</g>
<!-- Stack2&#45;&gt;TopStack -->
<g id="edge5" class="edge"><title>Stack2&#45;&gt;TopStack</title>
<path fill="none" stroke="black" d="M197.029,-34.3436C209.794,-47.2609 228.251,-65.9372 242.84,-80.7001"/>
<polygon fill="black" stroke="black" points="240.547,-83.3595 250.066,-88.0122 245.526,-78.4391 240.547,-83.3595"/>
<text text-anchor="middle" x="243.366" y="-57.8" font-family="Times,serif" font-size="14.00">done</text>
</g>
<!-- Stack3&#45;&gt;TopStack -->
<g id="edge7" class="edge"><title>Stack3&#45;&gt;TopStack</title>
<path fill="none" stroke="black" d="M342.736,-36.0335C344.115,-46.3543 344.042,-59.3461 337.866,-69 331.787,-78.5014 322.326,-85.4961 312.239,-90.6186"/>
<polygon fill="black" stroke="black" points="310.571,-87.5304 302.878,-94.8147 313.435,-93.918 310.571,-87.5304"/>
<text text-anchor="middle" x="356.366" y="-57.8" font-family="Times,serif" font-size="14.00">done</text>
</g>
<!-- Stack4&#45;&gt;TopStack -->
<g id="edge9" class="edge"><title>Stack4&#45;&gt;TopStack</title>
<path fill="none" stroke="black" d="M479.966,-35.9781C475.868,-47.0969 468.882,-61.0014 457.866,-69 436.172,-84.7505 367.935,-94.4024 318.984,-99.477"/>
<polygon fill="black" stroke="black" points="318.457,-96.0123 308.855,-100.491 319.154,-102.977 318.457,-96.0123"/>
<text text-anchor="middle" x="485.366" y="-57.8" font-family="Times,serif" font-size="14.00">done</text>
</g>
</g>
</svg>
