<?xml version="1.0" encoding="UTF-8" standalone="no"?>
<!DOCTYPE svg PUBLIC "-//W3C//DTD SVG 1.1//EN"
 "http://www.w3.org/Graphics/SVG/1.1/DTD/svg11.dtd">
<!-- Generated by graphviz version 2.38.0 (20140413.2041)
 -->
<!-- Title: G Pages: 1 -->
<svg width="281pt" height="218pt"
 viewBox="0.00 0.00 281.09 218.00" xmlns="http://www.w3.org/2000/svg" xmlns:xlink="http://www.w3.org/1999/xlink">
<g id="graph0" class="graph" transform="scale(1 1) rotate(0) translate(4 214)">
<title>G</title>
<polygon fill="white" stroke="none" points="-4,4 -4,-214 277.092,-214 277.092,4 -4,4"/>
<!-- CloudFormation -->
<g id="node1" class="node"><title>CloudFormation</title>
<ellipse fill="none" stroke="black" cx="138.092" cy="-192" rx="69.5877" ry="18"/>
<text text-anchor="middle" x="138.092" y="-188.3" font-family="Times,serif" font-size="14.00">CloudFormation</text>
</g>
<!-- CustomPingdomPing -->
<g id="node2" class="node"><title>CustomPingdomPing</title>
<ellipse fill="none" stroke="black" cx="87.0923" cy="-105" rx="87.1846" ry="18"/>
<text text-anchor="middle" x="87.0923" y="-101.3" font-family="Times,serif" font-size="14.00">CustomPingdomPing</text>
</g>
<!-- CloudFormation&#45;&gt;CustomPingdomPing -->
<g id="edge1" class="edge"><title>CloudFormation&#45;&gt;CustomPingdomPing</title>
<path fill="none" stroke="black" d="M72.0509,-186.128C52.5378,-181.234 33.1852,-172.24 21.0923,-156 12.276,-144.16 21.152,-133.774 34.9451,-125.58"/>
<polygon fill="black" stroke="black" points="36.8472,-128.534 44.0546,-120.768 33.5776,-122.344 36.8472,-128.534"/>
<text text-anchor="middle" x="37.5923" y="-144.8" font-family="Times,serif" font-size="14.00">create</text>
</g>
<!-- CloudFormation&#45;&gt;CustomPingdomPing -->
<g id="edge2" class="edge"><title>CloudFormation&#45;&gt;CustomPingdomPing</title>
<path fill="none" stroke="black" d="M112.31,-175.044C105.728,-169.766 99.3241,-163.338 95.0923,-156 91.167,-149.194 89.0074,-141.046 87.8591,-133.322"/>
<polygon fill="black" stroke="black" points="91.3266,-132.822 86.8492,-123.219 84.3613,-133.518 91.3266,-132.822"/>
<text text-anchor="middle" x="113.592" y="-144.8" font-family="Times,serif" font-size="14.00">update</text>
</g>
<!-- CloudFormation&#45;&gt;CustomPingdomPing -->
<g id="edge3" class="edge"><title>CloudFormation&#45;&gt;CustomPingdomPing</title>
<path fill="none" stroke="black" d="M141.465,-173.823C142.579,-163.697 142.405,-150.959 137.092,-141 134.6,-136.328 131.176,-132.147 127.279,-128.443"/>
<polygon fill="black" stroke="black" points="129.269,-125.548 119.321,-121.903 124.825,-130.956 129.269,-125.548"/>
<text text-anchor="middle" x="157.592" y="-144.8" font-family="Times,serif" font-size="14.00">delete</text>
</g>
<!-- S3 -->
<g id="node3" class="node"><title>S3</title>
<ellipse fill="none" stroke="black" cx="192.092" cy="-18" rx="27" ry="18"/>
<text text-anchor="middle" x="192.092" y="-14.3" font-family="Times,serif" font-size="14.00">S3</text>
</g>
<!-- CustomPingdomPing&#45;&gt;S3 -->
<g id="edge4" class="edge"><title>CustomPingdomPing&#45;&gt;S3</title>
<path fill="none" stroke="black" d="M107.587,-87.4094C124.769,-73.4996 149.348,-53.6021 167.573,-38.8493"/>
<polygon fill="black" stroke="black" points="169.879,-41.4853 175.449,-32.4729 165.475,-36.0446 169.879,-41.4853"/>
<text text-anchor="middle" x="160.592" y="-57.8" font-family="Times,serif" font-size="14.00">result</text>
</g>
<!-- S3&#45;&gt;CloudFormation -->
<g id="edge5" class="edge"><title>S3&#45;&gt;CloudFormation</title>
<path fill="none" stroke="black" d="M195.958,-35.8536C201.292,-63.505 207.685,-119.111 183.092,-156 180.004,-160.632 176.1,-164.919 171.889,-168.787"/>
<polygon fill="black" stroke="black" points="169.53,-166.197 164.085,-175.285 174.009,-171.576 169.53,-166.197"/>
<text text-anchor="middle" x="236.592" y="-101.3" font-family="Times,serif" font-size="14.00">result&#45;arrived</text>
</g>
</g>
</svg>
