<?xml version="1.0" encoding="UTF-8" standalone="no"?>
<!DOCTYPE svg PUBLIC "-//W3C//DTD SVG 1.1//EN"
 "http://www.w3.org/Graphics/SVG/1.1/DTD/svg11.dtd">
<!-- Generated by graphviz version 2.38.0 (20140413.2041)
 -->
<!-- Title: G Pages: 1 -->
<svg width="416pt" height="131pt"
 viewBox="0.00 0.00 416.20 131.00" xmlns="http://www.w3.org/2000/svg" xmlns:xlink="http://www.w3.org/1999/xlink">
<g id="graph0" class="graph" transform="scale(1 1) rotate(0) translate(4 127)">
<title>G</title>
<polygon fill="white" stroke="none" points="-4,4 -4,-127 412.201,-127 412.201,4 -4,4"/>
<!-- CloudFormation -->
<g id="node1" class="node"><title>CloudFormation</title>
<ellipse fill="none" stroke="black" cx="194.201" cy="-105" rx="69.5877" ry="18"/>
<text text-anchor="middle" x="194.201" y="-101.3" font-family="Times,serif" font-size="14.00">CloudFormation</text>
</g>
<!-- CustomPingdomPing -->
<g id="node2" class="node"><title>CustomPingdomPing</title>
<ellipse fill="none" stroke="black" cx="194.201" cy="-18" rx="87.1846" ry="18"/>
<text text-anchor="middle" x="194.201" y="-14.3" font-family="Times,serif" font-size="14.00">CustomPingdomPing</text>
</g>
<!-- CloudFormation&#45;&gt;CustomPingdomPing -->
<g id="edge1" class="edge"><title>CloudFormation&#45;&gt;CustomPingdomPing</title>
<path fill="none" stroke="black" d="M126.69,-100.576C78.2506,-96.5405 18.8757,-87.8079 3.20108,-69 -1.06703,-63.8787 -1.06703,-59.1213 3.20108,-54 16.2387,-38.3562 59.51,-29.6828 101.575,-24.8849"/>
<polygon fill="black" stroke="black" points="102.082,-28.3506 111.652,-23.8041 101.336,-21.3905 102.082,-28.3506"/>
<text text-anchor="middle" x="45.7011" y="-57.8" font-family="Times,serif" font-size="14.00">update; pr = #1</text>
</g>
<!-- CloudFormation&#45;&gt;CustomPingdomPing -->
<g id="edge3" class="edge"><title>CloudFormation&#45;&gt;CustomPingdomPing</title>
<path fill="none" stroke="black" d="M150.608,-90.8531C140.564,-85.6885 131.105,-78.615 125.201,-69 117.508,-56.4721 126.185,-46.1362 139.682,-38.1782"/>
<polygon fill="black" stroke="black" points="141.352,-41.2547 148.606,-33.5321 138.12,-35.0458 141.352,-41.2547"/>
<text text-anchor="middle" x="165.701" y="-57.8" font-family="Times,serif" font-size="14.00">delete; pr = #1</text>
</g>
<!-- CustomPingdomPing&#45;&gt;CloudFormation -->
<g id="edge2" class="edge"><title>CustomPingdomPing&#45;&gt;CloudFormation</title>
<path fill="none" stroke="black" d="M206.871,-35.9528C210.259,-41.4299 213.461,-47.7172 215.201,-54 217.452,-62.1278 215.557,-70.6896 212.141,-78.3864"/>
<polygon fill="black" stroke="black" points="209.026,-76.7897 207.397,-87.2586 215.199,-80.0905 209.026,-76.7897"/>
<text text-anchor="middle" x="260.701" y="-57.8" font-family="Times,serif" font-size="14.00">updated; pr = #2</text>
</g>
<!-- CustomPingdomPing&#45;&gt;CloudFormation -->
<g id="edge4" class="edge"><title>CustomPingdomPing&#45;&gt;CloudFormation</title>
<path fill="none" stroke="black" d="M269.836,-26.9565C303.597,-33.7365 332.342,-46.1983 315.201,-69 304.491,-83.2468 288.336,-91.9696 271.288,-97.2418"/>
<polygon fill="black" stroke="black" points="269.928,-93.9833 261.182,-99.9629 271.748,-100.743 269.928,-93.9833"/>
<text text-anchor="middle" x="364.201" y="-57.8" font-family="Times,serif" font-size="14.00">deleted; pr = #1</text>
</g>
</g>
</svg>
